<svg viewBox="0 0 794 202" xmlns="http://www.w3.org/2000/svg" fill-rule="evenodd" clip-rule="evenodd" stroke-linejoin="round" stroke-miterlimit="1.4"><path fill="none" d="M.3.4h793v200.9H.3z"/><path d="M66.7 120.1s6.8.4 12.1.3c3.7 0 9.7-.5 8.4 3.5-.9 2.8-5.3 2.9-9.3 3.3h-.2c3 .6 6.2 1 9 2.3 1.6.7 3 2.5 2 4.2-1.3 2.2-4.9 2-8.3 2.2l-4.3.2s8 .7 11.3 2.3c2.1 1.1 3.8 3.8 1.7 6-2.7 2.9-8 2.2-12.3 1.8-3.5-.3-7-.8-10.5-1.4l-1.1-1.2 1-.8c6.2.3 12.4.9 18.3-.7 0 0-7.3-1.3-12.6-2-3.8-.5-9-.9-8.3-4.8.6-2.8 4.8-3.3 8.7-3.5l4.1-.2s-8-1.4-10.8-2.4c-1.3-.5-2.6-1.9-2-3.4.9-2.2 4.6-1.9 8-2 3.1 0 6.3-.1 9.4-.5h.1c-4.8-.4-9.8.3-14.3-1-1-.3-2-1.4-2-1.4l-.1-.7s.2-1 1-1l.7.2.3.7zm19.2 21.5zm0 0c0-.2.1-.1 0 0zm-19.3-13.3c-.3.1 0 0 0 0zm17.9-4.3c-.3-.3-.1-.1 0 0zm0 0s-.1-.1 0 0zm0 0z" fill="#e6e6e6" fill-rule="nonzero"/><path d="M74.5 44.7c11 .1 21.7 6.6 26.5 17.4 5 11.4 3.4 25.4-2 36.3-2.7 5.6-6.8 10.7-9.1 16.2a9.9 9.9 0 0 0-.9 3.8l-.3.7-.7.4-.7-.3s-.4-1-.3-1.9c.7-7.5 6.8-13.6 10-21.8 5.4-13.3 4.9-29.9-5.6-39.6a25.5 25.5 0 0 0-33-.9c-9.8 8.5-11 25-6.6 35 4.2 9 11.7 17.1 12 27.6l-1 1.3-1-1c-1.4-12.5-13.4-21.4-16.3-32.2A34 34 0 0 1 57.6 50a29.1 29.1 0 0 1 17-5.3z" fill="#2adbff" fill-rule="nonzero"/><path d="M87 85.5c1.1.2.9 0 1.6 1 1.9 2.2.6 5.5-.1 7.9-2.3 6.7-5.3 13.3-4.9 20.4l-.2.7-.7.4-.7-.3c-.6-1-.5-1.3-.5-1.8C81 107 83.2 100.4 85 94c0 0-1.6 1.3-3.2.7-1.4-.5-2.4-1.9-3-3.2 0 0-.5 2.9-2.8 3.2-2.8.4-5.3-2.6-5.3-5.8h-.2c-1.3 1-1 1.8-1.3 2.6-1 2.5-5 3.2-7 1.2l2.4 6.2 1 2.7.2.3c1.7 4.7 4 9.3 4.5 14.2v.7l-1 1s-1-.8-1-1c-.7-4.2-3.6-8.1-5.9-12.5l-1.5-3.2-1.2-2.6s-3-5.7-2.5-9.2c.4-3 3.4-6 6.4-3.8 1.2.9 1.5 3.2 1.8 2.6 0 0 4-6 8.2-3.6 1 .6 1.7 1.7 1.7 3l.2-.3a12 12 0 0 1 .8-1.2c1.1-1.6 3.6-3.1 5.2-1.1 1 1.1.6 3 1.1 4.5a11.5 11.5 0 0 1 1-2c.8-1 1.7-2 3.2-1.9h.1zm-5 5.6c.1 0 0 0 0 0zm0 0s0-.1 0 0zm3.6-2.3zm0 0c-.1-.3 0-.1 0 0zm-7.8-1.5c0-.2 0-.1 0 0z" fill="#e6e6e6" fill-rule="nonzero"/><path d="M30.5 73.3c1.1.3 2.4 1.1 2.4 1.1l1 1-1 1a9 9 0 0 1-2.3 1.3s-6.2.3-9-.4l-3-.9-.9-1s.8-1 1.4-1l.7-.2 2.9-.6 1.3-.3h6.5zM23.5 41.3c3 1.4 2.2.7 7.3 3.7l7 5c1.3 1.3 1.4 1.7 2.4 3.2l.3 1.4-1.5.3-1.7-.5c-3.4-1.1-5.6-3.3-8.3-5.2l-.8-.6-1.8-1.6-4-4-.3-1.5s1.2-.3 1.4-.2zM46.7 17.4l2.1 2.7 1.8 2.4c.7 1 1 1.2 1.6 2.2l4.6 8.3.4 1.1.6 3.3-.4 1.4-1.4-.4-1.4-1.3c-.5-.5-.7-.5-1.8-2l-4-7.3-.5-1a64 64 0 0 1-1.1-2.4l-2.2-6 .3-1.4 1.4.4zM87.1 16.4V22l-.2 2.4-1.4 7.4-.1.8c-.7 1.8-1 2-2 3.6l-1.1.9-.8-1.2-.4-1.7c-.4-3.6.6-6.5 1.2-9.7l.2-1 .7-2.2c.8-2.5 1-2.8 2-5.3l1.1-1 .8 1.3zM116.8 33.1v1.5c-1.6 2.2-1 1.7-4 5.5l-4.6 4.3s-.6.6-1.3.9c-1 .5-1.3.5-2.4.9H103v-1.5l.6-1.4c1.3-2.7 3.5-4.1 5.5-6l.5-.5 1.7-1.2 4-2.5h1.5zM124.4 64.3l4 .3 1.1.8-.8 1.2-1.9.9-3.2 1.3-5.6 1c-1.4 0-1.6-.3-2.9-.8l-1.1-.8.8-1.2 1-.8c2-1.4 4.2-1.3 6.3-1.7l1.4-.2h1zM117.3 89.8l4.7 1.5 1.3.6 2.8 2 .7 1.2-1.3.6h-1.8c-.7 0-1 .1-3-.1L116 94c-1-.6-1-1-1.8-1.8l-.7-1.3 1.3-.7 1-.3c.7-.1.5-.2 1.5-.2zM38 93.1c1 .4 1.4.9 1.4.9l.5 1.9c-.2.6-.4 1.2-.7 1.5l-2.3.7c-1.3 0-1.5-.2-2.6-.5l-1.3-.7.7-1.3.7-.7 1.2-1.1 2.3-.7h.2z" fill="#f3dc2e" fill-rule="nonzero"/><path d="M254.7 106.4l.1.6.5 3.7 1.8 18 .6 7 .5 5.3-.6 1.7c-.5.4-1 .7-1.7.7l-31.4-.1h-2.6s-.7 0-1.1-.3c-.7-.4-1.2-1.1-1.2-2l-.1-6v-7.4l.6-19.8s.2-1 .9-1.2h.5l20.6-.9 10.8-.4 1.6.8.2.3zM223 117.9c.5 6.7 1 13 1 18.8v2.1l29.5.1-.6-6-.4-5.4-1-13.8-.2-4.8H240l-17.7-.3.7 9.3zM374.6 129.5c-.4-5.9-.8-10.5-1-16.2l-.2-6.1v-4c0-.7 0-1.2 1.1-2l1-.2 7.1-.2 18-.5 6.5-.2c.5 0 1 .2 1.5.5l.2.3c.4.4.6.9.6 1.4l.6 12.8.8 22.6s-.1 1.6-1.7 1.8l-10.9 1-21.1 1.7s-1.4.2-1.5-1l-1-11.7zm30.4-24.8l-26.3.7h-.8l.3 10.9v6.6l-.6 17.2 18-2.5 11.4-1.5-.4-5.1-1-14.5-.3-5.5s0-6.3-.3-6.3zM369 100.1c1.5.3 1.6.6 1.9 2l4.2 37.6c0 1.1-.2 1.2-.3 1.5-.7 1-2.2 1-3.4 1l-8 .3-7.3.2-17.9.1s-2-.2-2-2.1l1.6-14.6 2.3-21s-.1-1.2 1.2-1.3l11.6-1.7 8.6-1.2 7-.8h.5zm-3.6 4.8l-3 .2-3.4.1-7.3.3-9.6.3-1 18.2-.8 14.9 1.4-.1 7.5-.2v-.2l18-.5 3.1-.1-3.2-29.2-.4-3.8-1.3.1zM412.1 110.8c.4-1 1-.8 1.1-.8l17.4-3 8-1.4s2 0 2.2 1.8v3.9l.2 8v20.8c-.2 1.8-.7 2.1-2.3 2.2h-25.3c-2.3-.2-2.3-1.7-2.3-2.7v-5-3a498 498 0 0 1 1-20.5v-.3zm19-.8l-17 2 .7 7.7c.4 5.5.7 10.5.8 15.8v2.3h20.8l.1-8.7v-5.2l.4-13.3v-1.2l-5.8.6zM522 126.3c-.5-5.7-1-10.2-1.2-15.8l-.2-6v-2.3c0-1.8.8-2 1.5-2.2h35.1c1.4.7 1.5 1 1.4 2.4l-.3 3.4-.7 7-3.1 25s-.3 1.5-1.8 1.6l-7.7-.2-20.7-.4s-1.2.2-1.4-1l-1-11.5zm3.1-21.9l.3 9.3v6.4l-.4 16.7 17.7-.7 8.4-.2.8-7.4-.2-.2 1.2-13.9.5-5.3.5-4.7h-28.8z" fill="#fff" fill-rule="nonzero"/><path d="M519.5 101.5c1.6.4 1.7.7 1.9 2.1l1.5 33.6c0 1.8-.4 2-2 2.4h-1.2c-1 .2-2.1.2-3.2.3A590.3 590.3 0 0 1 494 141l-.8-.2-.3-.7v-.3l-1.8-19.1-1.5-16.6s0-1.1.7-1.7c0 0 .6-.4 1.3-.5l4.7-.1 22.4-.3h.8zm-25.8 4.4v1.6l.6 15 .5 16.4 8.4-1.5c5.1-.8 9.9-1.6 15.1-2.1l-1.1-25.4-.2-4-7.4.1h-4.8l-5.9-.1h-5.2z" fill="#fff" fill-rule="nonzero"/><path d="M491.2 67.6c.4-1 1-.7 1.1-.8l19.1-3.2 8-1.3s1.8 0 2 1.7l.2 5.6.2 8.8.2 14.2v9c0 1.8-.9 2-1.6 2.2h-.7l-25.8-1.3h-1.1s-2-.2-2.2-2.2V99l-.1-5.6v-6.9l.6-18.4v-.5zm20.6-1l-18.6 2.2.8 8.7c.5 6 .9 11.6 1 17.6v3l22.6 1.1-.1-10v-5.7c0-5.8 0-11.7.2-17.5l-5.9.7z" fill="#fff" fill-rule="nonzero"/><path d="M554.9 63l.1.7.3 4 1 17.8.3 7 .3 8s-.1 2.1-2.3 2.3l-28.7-.6h-3.5c-2.2-.3-2.2-1.9-2.2-1.9V94.7c0-2.4 0-4.9.2-7.3l1-19.7s.1-1 .7-1.1h.5l20.5-3.2L553 62l1.6.6.4.5zm-14 3.8l-17.4 1.7.6 9.3c.3 7 .6 13.6.6 20l27.6.4-.3-8-.2-5.3c-.2-4.6-.2-9.3-.3-13.9v-5.2l-10.6 1zM765 45.3c.8 0 1.6.7 1.6.7.2.3.3.7.3 1l.3 25 .5 63.2v.8c-.6 1.3-.9 1.4-2.2 1.5h-22.8l-16.3-.2s-2 0-2.3-2.1l-1.6-36.4-.8-15.9-11.8.4-21.4.7.4 50.8c-.1 1.8-.5 2-2.2 2.3h-2.9l-24.1 1-11.8.3-1.4-.5c-.9-.7-.7-.4-.8-1.7l.2-12 1.8-73.4V50c.1-.8.3-1 1-1h1.3l75.9-2.6 39.2-1.2zm-41.6 4.4L650 51.1h-.3L650 91l.1 29.4h.2l-.2 13.5h.3l30-1.1 4-.1-.3-48.3v-2.6c0-1.8.5-2 2.1-2.3l25-.7 12.7-.5c1.8.1 2.1.5 2.3 2.2l2.4 52.4h34.7V74l.2-.1V48.9l-40 .8z" fill="#fff" fill-rule="nonzero"/><path d="M662.1 38v24l86.3-.3.8-23.4-87-.2z" fill="#fff"/><path d="M751.2 37.3c.3.6.2.8.2 1l-.3 10.3-.4 13.1-.2.8c-.6 1.3-1.2 1.3-2 1.4l-59.5.2H673.7l-11.6-.2s-.6.2-1.5-.9l-.2-.5v-4.9l.7-19.2s0-1.3 1-1.3h.6c28.9-.5 57.7-.9 86.5-1 0 0 1 0 1.6.6l.4.6zm-87.4 17.4l.1-.1v5.5l7-.2 5.9-.1 5.1-.1 54.1-.2h10.2l.4-10.6c0-2.7-1.7-6.3.3-8.2v-.2l-11.6-.1-72.1-1.3.6 15.6z" fill="#fff" fill-rule="nonzero"/><text x="667" y="62.8" font-family="'Lato-Black','Lato',sans-serif" font-weight="900" font-size="19" fill="#d21e1e" transform="rotate(-.1 -1841.4 -98.9)">Business</text><path d="M204.2 168.6l274.4.9 293.2 2.1.7.3.3.8-.3.7c-1.2.5-1.2.3-2.5.3l-107.4.2h-184l-274.4-.8h-31c-47.6-.4-95-1-142.5-1.7l-.8-.3-.3-.8.3-.7 1.7-.3 59.1-.4c37.9-.2 75.7-.4 113.5-.3z" fill="#fff" fill-rule="nonzero"/><path d="M754.2 155l5.7 4 2.3 1.7 7.6 7 .8 1 1.9 3.2v1.4h-1.4l-2-.8-2.4-1.5-6.7-6.2-.8-.8-2-2.2-4.4-5.3-.1-1.5s1.3-.2 1.5 0z" fill="#fff" fill-rule="nonzero"/><path d="M772.8 172.9l-.4 1.5c-1 3-3 4.8-4.8 7l-.5.6-1.5 1.5-3.8 3.1-1.4.2-.2-1.4 1.2-2.3c.5-1 .6-1.4 2.2-4l4-5s.6-.8 1.2-1.2l2.4-1.3 1.4-.1.2 1.4z" fill="#fff" fill-rule="nonzero"/></svg>