<svg xmlns="http://www.w3.org/2000/svg" xmlns:xlink="http://www.w3.org/1999/xlink" width="100%" height="100%" x="0px" y="0px" enable-background="new 0 0 113.4 51.4" preserveAspectRatio="xMinYMid" version="1.1" viewBox="0 0 113.4 51.4" xml:space="preserve">
    <g id="CMYK">
        <path fill="#ddd" d="M31.5,30.2c0,0,1.9,0.5,6-3.9c1.1-1.2,3.4-4.5,6.2-5.4c1.2-0.4,3.3-0.9,5-1.1c0.9-0.1,3.4-0.6,4.9-1.3
		c1.5-0.7,2.3-1.3,2.6-1.9c0,0-0.7,0.4-1.9,0.7c-1.2,0.3-2.8,0.7-5.7,0.9c-2.7,0.2-3.8,0.2-5.5,0.6c-1.8,0.4-3.7,1.1-5.7,3.9
		c-0.8,1.1-2,3.3-3.3,4.9c-0.9,1.1-1.4,1.9-2,2.2L31.5,30.2z"/>
        <path fill="#ddd" d="M49.7,21.8c0,0,1.6,0.9,6.7-1.6c2.4-1.1,8.9-5.9,8.9-5.9s6.9-5.1,11.2-7.1c4.1-2,6.7-3.1,11.9-3.6
		s7.1,1,8.8,2.1c0.6,0.4,1.3,0.9,2,1.7c0.8,1,0.5-1.5-0.4-2.9c-1.1-1.6-2-2.5-4.2-3.6C92-0.3,88.1,0,87.7,0.1
		c-0.4,0-4.6,0.5-9.4,2.7c-4.8,2.2-7.8,4.5-9.7,6c-1.9,1.5-6.1,4.9-7.3,5.9c-1.2,0.9-3.4,2.9-5.7,4.4c-2.3,1.5-3.2,1.9-5.4,2.7
		C50.1,21.7,49.7,21.8,49.7,21.8"/>
        <path fill="#ddd" d="M92.6,8.5c0,0,0.8,0.9,3.8,0.5c2.4-0.3,3.5-1,6.3-0.8c3.3,0.3,4.9,2.8,5.5,3.9c0.4,0.7,2.1,3.8,1.6,7.8
		c0,0.3-0.1,0.6-0.1,0.6s-0.1,0.4,0.5,0.3c0.7-0.1,1.3-0.9,1.4-1.3c0.1-0.4,0.3-1.1,0.1-2c-0.1-0.4-0.3-0.7-0.2-0.7
		c0.1,0,0.6,0.3,0.8,0.6c0.5,0.7,1.2,2.4,1,4c-0.1,1.1-0.7,2.3-1.7,3.1c-1,0.8-1.4,0.6-2.1,0.8c-0.7,0.2-0.8,0.2-1,0.6
		c-0.2,0.4-0.2,0.5-0.4,0.7c-0.1,0.2-0.5,0.8-0.5,1c0,0.2,0,1.2-0.4,2.4c-0.4,1.2-2.1,5-3.1,6.6c-1,1.6-1.8,2.5-2.7,3.1
		c-0.9,0.6-1.4,1-4.1,0.9c-2.7-0.1-3-1.1-5.7,0.5c-1.1,0.6-1.9,1.8-4.5,2.3c-0.9,0.2-2.3,0.1-2.5-0.1c0,0,0.1,0,0.5-0.1
		c0.4-0.1,1.9-0.7,2.7-1.5c0.8-0.7,1.6-1.3,2.6-2.4c1-1.1,2.1-1.9,4.4-1.5c2.3,0.4,2.5,0.5,3.1,0.5c0.6,0,2.3,0.1,3.4-1.9
		c1.2-2.1,1.8-3.1,2.6-5c0.7-2,1-3.1,1-4.3c0.1-1.2-0.1-1.9,0.9-3.3c1-1.4,1.2-3.6,1.1-5.3c-0.1-1.7-0.5-4-2.4-5.7
		c-1.8-1.7-3.4-2.1-5.6-2c-2.2,0.1-3.6,0.3-5.3-0.4c-0.9-0.4-1.4-1-1.5-1.7C92.1,7.9,92.6,8.5,92.6,8.5"/>
        <path fill="#ddd" d="M92.2,13.6c0,0-4,3.4-1.1,5.7c0.8,0.6,2.2,1,1.5,3.2c-0.7,2.2-2.9,1.9-3.3,1.7c-0.4-0.2-3.1-1.5-2.9-5.3
		c0.2-3.7,3.9-5.2,4.7-5.3C91.8,13.5,92.2,13.6,92.2,13.6"/>
        <path fill="#ddd" d="M94.9,23.9c0,0,2.3,1.3,2.7,1.4c0.4,0.2,0.7,0.3,0.6,1c-0.1,0.6-0.3,1.7-1.4,2.4c-1.1,0.7-2.2-0.1-2.4-0.3
		c-0.2-0.2-1.2-1.3-0.7-2.9C94.1,24.4,94.9,23.9,94.9,23.9"/>
        <path fill="#ddd" d="M81.6,51c-0.2,0,1.2-0.3,2.2-1.1c1-0.8,2-1.9,3.2-3.3c1.2-1.4,3.2-2.1,3.9-2.3c0.3-0.1,1.6-0.5,2.8-0.2
		c0,0-1.6,0.5-3,1.8c-1.4,1.2-2.5,2.8-4.2,4C84.8,50.9,82.6,51.3,81.6,51"/>
        <g>
            <path fill="#ddd" d="M3.6,34h7.6c1.8,0,4.8,0.7,4.8,3.9c0,2.3-1.8,4-4.5,4.3v0c2,0.3,3.3,1.4,3.3,3.3c0,3.6-3.1,5.3-7,5.4
			L0,51.1L3.6,34z M5.2,47.8h1.2c2.3,0,3.8-0.6,3.8-2.3c0-1.5-1.1-1.7-3.1-1.7H6L5.2,47.8z M6.7,40.8h1.7c1.9,0,3-0.8,3-1.9
			c0-1.4-1.1-1.6-2.8-1.6H7.4L6.7,40.8z"/>
            <polygon fill="#ddd" points="20,34 24.6,34 21,51.1 16.5,51.1 		"/>
            <path fill="#ddd" d="M38.2,37.9c-0.9-0.4-2.1-0.8-3.8-0.8c-1.8,0-3.3,0.3-3.3,1.6c0,2.4,6.6,1.5,6.6,6.7c0,4.7-4.4,5.9-8.3,5.9
			c-1.8,0-3.8-0.4-5.3-0.9l1.1-3.5c0.9,0.6,2.7,1,4.2,1c1.4,0,3.6-0.3,3.6-2c0-2.7-6.6-1.7-6.6-6.5c0-4.4,3.9-5.7,7.6-5.7
			c2.1,0,4.1,0.2,5.2,0.8L38.2,37.9z"/>
            <path fill="#ddd" d="M47.8,51.4c-5.5,0-7.6-3.4-7.6-6.9c0-6.5,3.4-10.7,10-10.7c5.5,0,7.6,3.4,7.6,7
			C57.8,47.1,54.4,51.4,47.8,51.4 M49.9,37.1c-3.5,0-5,4.1-5,7c0,2.1,0.8,3.9,3.2,3.9c3.5,0,5-4.1,5-6.9
			C53.1,38.9,52.3,37.1,49.9,37.1"/>
            <polygon fill="#ddd" points="61.8,34 67.5,34 71,45.8 71.1,45.8 73.4,34 77.7,34 74.1,51.1 68.5,51.1 64.9,39.3 64.9,39.3
			62.5,51.1 58.2,51.1 		"/>
        </g>
        <path fill="#ddd" d="M17.7,25.9c0,0-0.1,0.4,1.6,1.9c2,1.8,4.1,2.3,6,2.3c1.8,0,4.4-1,6-2.7c1.6-1.7,1.6-2.4,1.6-2.4
		s-1.5,1.2-2.4,1.6c-1.4,0.7-3.4,1.7-5.2,1.7c-2.3,0-3.9-0.4-5.4-1.1C18.4,26.6,17.7,25.9,17.7,25.9"/>
    </g>
    <g id="Pantone" display="none">
        <path fill="#ddd" d="M31.5,30.2c0,0,1.9,0.5,6-3.9c1.1-1.2,3.4-4.5,6.2-5.4c1.2-0.4,3.3-0.9,5-1.1
		c0.9-0.1,3.4-0.6,4.9-1.3c1.5-0.7,2.3-1.3,2.6-1.9c0,0-0.7,0.4-1.9,0.7c-1.2,0.3-2.8,0.7-5.7,0.9c-2.7,0.2-3.8,0.2-5.5,0.6
		c-1.8,0.4-3.7,1.1-5.7,3.9c-0.8,1.1-2,3.3-3.3,4.9c-0.9,1.1-1.4,1.9-2,2.2L31.5,30.2z" display="inline"/>
        <path fill="#ddd" d="M49.7,21.8c0,0,1.6,0.9,6.7-1.6c2.4-1.1,8.9-5.9,8.9-5.9s6.9-5.1,11.2-7.1
		c4.1-2,6.7-3.1,11.9-3.6s7.1,1,8.8,2.1c0.6,0.4,1.3,0.9,2,1.7c0.8,1,0.5-1.5-0.4-2.9c-1.1-1.6-2-2.5-4.2-3.6
		C92-0.3,88.1,0,87.7,0.1c-0.4,0-4.6,0.5-9.4,2.7c-4.8,2.2-7.8,4.5-9.7,6c-1.9,1.5-6.1,4.9-7.3,5.9c-1.2,0.9-3.4,2.9-5.7,4.4
		c-2.3,1.5-3.2,1.9-5.4,2.7C50.1,21.7,49.7,21.8,49.7,21.8" display="inline"/>
        <path fill="#ddd" d="M92.6,8.5c0,0,0.8,0.9,3.8,0.5c2.4-0.3,3.5-1,6.3-0.8c3.3,0.3,4.9,2.8,5.5,3.9
		c0.4,0.7,2.1,3.8,1.6,7.8c0,0.3-0.1,0.6-0.1,0.6s-0.1,0.4,0.5,0.3c0.7-0.1,1.3-0.9,1.4-1.3c0.1-0.4,0.3-1.1,0.1-2
		c-0.1-0.4-0.3-0.7-0.2-0.7c0.1,0,0.6,0.3,0.8,0.6c0.5,0.7,1.2,2.4,1,4c-0.1,1.1-0.7,2.3-1.7,3.1c-1,0.8-1.4,0.6-2.1,0.8
		c-0.7,0.2-0.8,0.2-1,0.6c-0.2,0.4-0.2,0.5-0.4,0.7c-0.1,0.2-0.5,0.8-0.5,1c0,0.2,0,1.2-0.4,2.4c-0.4,1.2-2.1,5-3.1,6.6
		c-1,1.6-1.8,2.5-2.7,3.1c-0.9,0.6-1.4,1-4.1,0.9c-2.7-0.1-3-1.1-5.7,0.5c-1.1,0.6-1.9,1.8-4.5,2.3c-0.9,0.2-2.3,0.1-2.5-0.1
		c0,0,0.1,0,0.5-0.1c0.4-0.1,1.9-0.7,2.7-1.5c0.8-0.7,1.6-1.3,2.6-2.4c1-1.1,2.1-1.9,4.4-1.5c2.3,0.4,2.5,0.5,3.1,0.5
		c0.6,0,2.3,0.1,3.4-1.9c1.2-2.1,1.8-3.1,2.6-5c0.7-2,1-3.1,1-4.3c0.1-1.2-0.1-1.9,0.9-3.3c1-1.4,1.2-3.6,1.1-5.3
		c-0.1-1.7-0.5-4-2.4-5.7c-1.8-1.7-3.4-2.1-5.6-2c-2.2,0.1-3.6,0.3-5.3-0.4c-0.9-0.4-1.4-1-1.5-1.7C92.1,7.9,92.6,8.5,92.6,8.5" display="inline"/>
        <path fill="#ddd" d="M92.2,13.6c0,0-4,3.4-1.1,5.7c0.8,0.6,2.2,1,1.5,3.2c-0.7,2.2-2.9,1.9-3.3,1.7
		c-0.4-0.2-3.1-1.5-2.9-5.3c0.2-3.7,3.9-5.2,4.7-5.3C91.8,13.5,92.2,13.6,92.2,13.6" display="inline"/>
        <path fill="#ddd" d="M94.9,23.9c0,0,2.3,1.3,2.7,1.4c0.4,0.2,0.7,0.3,0.6,1c-0.1,0.6-0.3,1.7-1.4,2.4
		c-1.1,0.7-2.2-0.1-2.4-0.3c-0.2-0.2-1.2-1.3-0.7-2.9C94.1,24.4,94.9,23.9,94.9,23.9" display="inline"/>
        <path fill="#ddd" d="M81.6,51c-0.2,0,1.2-0.3,2.2-1.1c1-0.8,2-1.9,3.2-3.3c1.2-1.4,3.2-2.1,3.9-2.3
		c0.3-0.1,1.6-0.5,2.8-0.2c0,0-1.6,0.5-3,1.8c-1.4,1.2-2.5,2.8-4.2,4C84.8,50.9,82.6,51.3,81.6,51" display="inline"/>
        <g display="inline">
            <path fill="#E31837" d="M3.6,34h7.6c1.8,0,4.8,0.7,4.8,3.9c0,2.3-1.8,4-4.5,4.3v0c2,0.3,3.3,1.4,3.3,3.3c0,3.6-3.1,5.3-7,5.4
			L0,51.1L3.6,34z M5.2,47.8h1.2c2.3,0,3.8-0.6,3.8-2.3c0-1.5-1.1-1.7-3.1-1.7H6L5.2,47.8z M6.7,40.8h1.7c1.9,0,3-0.8,3-1.9
			c0-1.4-1.1-1.6-2.8-1.6H7.4L6.7,40.8z"/>
            <polygon fill="#E31837" points="20,34 24.6,34 21,51.1 16.5,51.1 		"/>
            <path fill="#E31837" d="M38.2,37.9c-0.9-0.4-2.1-0.8-3.8-0.8c-1.8,0-3.3,0.3-3.3,1.6c0,2.4,6.6,1.5,6.6,6.7c0,4.7-4.4,5.9-8.3,5.9
			c-1.8,0-3.8-0.4-5.3-0.9l1.1-3.5c0.9,0.6,2.7,1,4.2,1c1.4,0,3.6-0.3,3.6-2c0-2.7-6.6-1.7-6.6-6.5c0-4.4,3.9-5.7,7.6-5.7
			c2.1,0,4.1,0.2,5.2,0.8L38.2,37.9z"/>
            <path fill="#E31837" d="M47.8,51.4c-5.5,0-7.6-3.4-7.6-6.9c0-6.5,3.4-10.7,10-10.7c5.5,0,7.6,3.4,7.6,7
			C57.8,47.1,54.4,51.4,47.8,51.4 M49.9,37.1c-3.5,0-5,4.1-5,7c0,2.1,0.8,3.9,3.2,3.9c3.5,0,5-4.1,5-6.9
			C53.1,38.9,52.3,37.1,49.9,37.1"/>
            <polygon fill="#E31837" points="61.8,34 67.5,34 71,45.8 71.1,45.8 73.4,34 77.7,34 74.1,51.1 68.5,51.1 64.9,39.3 64.9,39.3
			62.5,51.1 58.2,51.1 		"/>
        </g>
        <path fill="#ddd" d="M17.7,25.9c0,0-0.1,0.4,1.6,1.9c2,1.8,4.1,2.3,6,2.3c1.8,0,4.4-1,6-2.7
		c1.6-1.7,1.6-2.4,1.6-2.4s-1.5,1.2-2.4,1.6c-1.4,0.7-3.4,1.7-5.2,1.7c-2.3,0-3.9-0.4-5.4-1.1C18.4,26.6,17.7,25.9,17.7,25.9" display="inline"/>
    </g>
    <g id="CKYK_Negativ" display="none">
        <path fill="#FFFFFF" d="M31.5,30.2c0,0,1.9,0.5,6-3.9c1.1-1.2,3.4-4.5,6.2-5.4c1.2-0.4,3.3-0.9,5-1.1
		c0.9-0.1,3.4-0.6,4.9-1.3c1.5-0.7,2.3-1.3,2.6-1.9c0,0-0.7,0.4-1.9,0.7c-1.2,0.3-2.8,0.7-5.7,0.9c-2.7,0.2-3.8,0.2-5.5,0.6
		c-1.8,0.4-3.7,1.1-5.7,3.9c-0.8,1.1-2,3.3-3.3,4.9c-0.9,1.1-1.4,1.9-2,2.2L31.5,30.2z" display="inline"/>
        <path fill="#FFFFFF" d="M49.7,21.8c0,0,1.6,0.9,6.7-1.6c2.4-1.1,8.9-5.9,8.9-5.9s6.9-5.1,11.2-7.1
		c4.1-2,6.7-3.1,11.9-3.6s7.1,1,8.8,2.1c0.6,0.4,1.3,0.9,2,1.7c0.8,1,0.5-1.5-0.4-2.9c-1.1-1.6-2-2.5-4.2-3.6
		C92-0.3,88.1,0,87.7,0.1c-0.4,0-4.6,0.5-9.4,2.7c-4.8,2.2-7.8,4.5-9.7,6c-1.9,1.5-6.1,4.9-7.3,5.9c-1.2,0.9-3.4,2.9-5.7,4.4
		c-2.3,1.5-3.2,1.9-5.4,2.7C50.1,21.7,49.7,21.8,49.7,21.8" display="inline"/>
        <path fill="#FFFFFF" d="M92.6,8.5c0,0,0.8,0.9,3.8,0.5c2.4-0.3,3.5-1,6.3-0.8c3.3,0.3,4.9,2.8,5.5,3.9
		c0.4,0.7,2.1,3.8,1.6,7.8c0,0.3-0.1,0.6-0.1,0.6s-0.1,0.4,0.5,0.3c0.7-0.1,1.3-0.9,1.4-1.3c0.1-0.4,0.3-1.1,0.1-2
		c-0.1-0.4-0.3-0.7-0.2-0.7c0.1,0,0.6,0.3,0.8,0.6c0.5,0.7,1.2,2.4,1,4c-0.1,1.1-0.7,2.3-1.7,3.1c-1,0.8-1.4,0.6-2.1,0.8
		c-0.7,0.2-0.8,0.2-1,0.6c-0.2,0.4-0.2,0.5-0.4,0.7c-0.1,0.2-0.5,0.8-0.5,1c0,0.2,0,1.2-0.4,2.4c-0.4,1.2-2.1,5-3.1,6.6
		c-1,1.6-1.8,2.5-2.7,3.1c-0.9,0.6-1.4,1-4.1,0.9c-2.7-0.1-3-1.1-5.7,0.5c-1.1,0.6-1.9,1.8-4.5,2.3c-0.9,0.2-2.3,0.1-2.5-0.1
		c0,0,0.1,0,0.5-0.1c0.4-0.1,1.9-0.7,2.7-1.5c0.8-0.7,1.6-1.3,2.6-2.4c1-1.1,2.1-1.9,4.4-1.5c2.3,0.4,2.5,0.5,3.1,0.5
		c0.6,0,2.3,0.1,3.4-1.9c1.2-2.1,1.8-3.1,2.6-5c0.7-2,1-3.1,1-4.3c0.1-1.2-0.1-1.9,0.9-3.3c1-1.4,1.2-3.6,1.1-5.3
		c-0.1-1.7-0.5-4-2.4-5.7c-1.8-1.7-3.4-2.1-5.6-2c-2.2,0.1-3.6,0.3-5.3-0.4c-0.9-0.4-1.4-1-1.5-1.7C92.1,7.9,92.6,8.5,92.6,8.5" display="inline"/>
        <path fill="#FFFFFF" d="M92.2,13.6c0,0-4,3.4-1.1,5.7c0.8,0.6,2.2,1,1.5,3.2c-0.7,2.2-2.9,1.9-3.3,1.7
		c-0.4-0.2-3.1-1.5-2.9-5.3c0.2-3.7,3.9-5.2,4.7-5.3C91.8,13.5,92.2,13.6,92.2,13.6" display="inline"/>
        <path fill="#FFFFFF" d="M94.9,23.9c0,0,2.3,1.3,2.7,1.4c0.4,0.2,0.7,0.3,0.6,1c-0.1,0.6-0.3,1.7-1.4,2.4
		c-1.1,0.7-2.2-0.1-2.4-0.3c-0.2-0.2-1.2-1.3-0.7-2.9C94.1,24.4,94.9,23.9,94.9,23.9" display="inline"/>
        <path fill="#FFFFFF" d="M81.6,51c-0.2,0,1.2-0.3,2.2-1.1c1-0.8,2-1.9,3.2-3.3c1.2-1.4,3.2-2.1,3.9-2.3
		c0.3-0.1,1.6-0.5,2.8-0.2c0,0-1.6,0.5-3,1.8c-1.4,1.2-2.5,2.8-4.2,4C84.8,50.9,82.6,51.3,81.6,51" display="inline"/>
        <g display="inline">
            <path fill="#ddd" d="M3.6,34h7.6c1.8,0,4.8,0.7,4.8,3.9c0,2.3-1.8,4-4.5,4.3v0c2,0.3,3.3,1.4,3.3,3.3c0,3.6-3.1,5.3-7,5.4
			L0,51.1L3.6,34z M5.2,47.8h1.2c2.3,0,3.8-0.6,3.8-2.3c0-1.5-1.1-1.7-3.1-1.7H6L5.2,47.8z M6.7,40.8h1.7c1.9,0,3-0.8,3-1.9
			c0-1.4-1.1-1.6-2.8-1.6H7.4L6.7,40.8z"/>
            <polygon fill="#ddd" points="20,34 24.6,34 21,51.1 16.5,51.1 		"/>
            <path fill="#ddd" d="M38.2,37.9c-0.9-0.4-2.1-0.8-3.8-0.8c-1.8,0-3.3,0.3-3.3,1.6c0,2.4,6.6,1.5,6.6,6.7c0,4.7-4.4,5.9-8.3,5.9
			c-1.8,0-3.8-0.4-5.3-0.9l1.1-3.5c0.9,0.6,2.7,1,4.2,1c1.4,0,3.6-0.3,3.6-2c0-2.7-6.6-1.7-6.6-6.5c0-4.4,3.9-5.7,7.6-5.7
			c2.1,0,4.1,0.2,5.2,0.8L38.2,37.9z"/>
            <path fill="#ddd" d="M47.8,51.4c-5.5,0-7.6-3.4-7.6-6.9c0-6.5,3.4-10.7,10-10.7c5.5,0,7.6,3.4,7.6,7
			C57.8,47.1,54.4,51.4,47.8,51.4 M49.9,37.1c-3.5,0-5,4.1-5,7c0,2.1,0.8,3.9,3.2,3.9c3.5,0,5-4.1,5-6.9
			C53.1,38.9,52.3,37.1,49.9,37.1"/>
            <polygon fill="#ddd" points="61.8,34 67.5,34 71,45.8 71.1,45.8 73.4,34 77.7,34 74.1,51.1 68.5,51.1 64.9,39.3 64.9,39.3
			62.5,51.1 58.2,51.1 		"/>
        </g>
        <path fill="#FFFFFF" d="M17.7,25.9c0,0-0.1,0.4,1.6,1.9c2,1.8,4.1,2.3,6,2.3c1.8,0,4.4-1,6-2.7
		c1.6-1.7,1.6-2.4,1.6-2.4s-1.5,1.2-2.4,1.6c-1.4,0.7-3.4,1.7-5.2,1.7c-2.3,0-3.9-0.4-5.4-1.1C18.4,26.6,17.7,25.9,17.7,25.9" display="inline"/>
    </g>
    <g id="Pantone_Negativ" display="none">
        <path fill="#FFFFFF" d="M31.5,30.2c0,0,1.9,0.5,6-3.9c1.1-1.2,3.4-4.5,6.2-5.4c1.2-0.4,3.3-0.9,5-1.1
		c0.9-0.1,3.4-0.6,4.9-1.3c1.5-0.7,2.3-1.3,2.6-1.9c0,0-0.7,0.4-1.9,0.7c-1.2,0.3-2.8,0.7-5.7,0.9c-2.7,0.2-3.8,0.2-5.5,0.6
		c-1.8,0.4-3.7,1.1-5.7,3.9c-0.8,1.1-2,3.3-3.3,4.9c-0.9,1.1-1.4,1.9-2,2.2L31.5,30.2z" display="inline"/>
        <path fill="#FFFFFF" d="M49.7,21.8c0,0,1.6,0.9,6.7-1.6c2.4-1.1,8.9-5.9,8.9-5.9s6.9-5.1,11.2-7.1
		c4.1-2,6.7-3.1,11.9-3.6s7.1,1,8.8,2.1c0.6,0.4,1.3,0.9,2,1.7c0.8,1,0.5-1.5-0.4-2.9c-1.1-1.6-2-2.5-4.2-3.6
		C92-0.3,88.1,0,87.7,0.1c-0.4,0-4.6,0.5-9.4,2.7c-4.8,2.2-7.8,4.5-9.7,6c-1.9,1.5-6.1,4.9-7.3,5.9c-1.2,0.9-3.4,2.9-5.7,4.4
		c-2.3,1.5-3.2,1.9-5.4,2.7C50.1,21.7,49.7,21.8,49.7,21.8" display="inline"/>
        <path fill="#FFFFFF" d="M92.6,8.5c0,0,0.8,0.9,3.8,0.5c2.4-0.3,3.5-1,6.3-0.8c3.3,0.3,4.9,2.8,5.5,3.9
		c0.4,0.7,2.1,3.8,1.6,7.8c0,0.3-0.1,0.6-0.1,0.6s-0.1,0.4,0.5,0.3c0.7-0.1,1.3-0.9,1.4-1.3c0.1-0.4,0.3-1.1,0.1-2
		c-0.1-0.4-0.3-0.7-0.2-0.7c0.1,0,0.6,0.3,0.8,0.6c0.5,0.7,1.2,2.4,1,4c-0.1,1.1-0.7,2.3-1.7,3.1c-1,0.8-1.4,0.6-2.1,0.8
		c-0.7,0.2-0.8,0.2-1,0.6c-0.2,0.4-0.2,0.5-0.4,0.7c-0.1,0.2-0.5,0.8-0.5,1c0,0.2,0,1.2-0.4,2.4c-0.4,1.2-2.1,5-3.1,6.6
		c-1,1.6-1.8,2.5-2.7,3.1c-0.9,0.6-1.4,1-4.1,0.9c-2.7-0.1-3-1.1-5.7,0.5c-1.1,0.6-1.9,1.8-4.5,2.3c-0.9,0.2-2.3,0.1-2.5-0.1
		c0,0,0.1,0,0.5-0.1c0.4-0.1,1.9-0.7,2.7-1.5c0.8-0.7,1.6-1.3,2.6-2.4c1-1.1,2.1-1.9,4.4-1.5c2.3,0.4,2.5,0.5,3.1,0.5
		c0.6,0,2.3,0.1,3.4-1.9c1.2-2.1,1.8-3.1,2.6-5c0.7-2,1-3.1,1-4.3c0.1-1.2-0.1-1.9,0.9-3.3c1-1.4,1.2-3.6,1.1-5.3
		c-0.1-1.7-0.5-4-2.4-5.7c-1.8-1.7-3.4-2.1-5.6-2c-2.2,0.1-3.6,0.3-5.3-0.4c-0.9-0.4-1.4-1-1.5-1.7C92.1,7.9,92.6,8.5,92.6,8.5" display="inline"/>
        <path fill="#FFFFFF" d="M92.2,13.6c0,0-4,3.4-1.1,5.7c0.8,0.6,2.2,1,1.5,3.2c-0.7,2.2-2.9,1.9-3.3,1.7
		c-0.4-0.2-3.1-1.5-2.9-5.3c0.2-3.7,3.9-5.2,4.7-5.3C91.8,13.5,92.2,13.6,92.2,13.6" display="inline"/>
        <path fill="#FFFFFF" d="M94.9,23.9c0,0,2.3,1.3,2.7,1.4c0.4,0.2,0.7,0.3,0.6,1c-0.1,0.6-0.3,1.7-1.4,2.4
		c-1.1,0.7-2.2-0.1-2.4-0.3c-0.2-0.2-1.2-1.3-0.7-2.9C94.1,24.4,94.9,23.9,94.9,23.9" display="inline"/>
        <path fill="#FFFFFF" d="M81.6,51c-0.2,0,1.2-0.3,2.2-1.1c1-0.8,2-1.9,3.2-3.3c1.2-1.4,3.2-2.1,3.9-2.3
		c0.3-0.1,1.6-0.5,2.8-0.2c0,0-1.6,0.5-3,1.8c-1.4,1.2-2.5,2.8-4.2,4C84.8,50.9,82.6,51.3,81.6,51" display="inline"/>
        <g display="inline">
            <path fill="#E31837" d="M3.6,34h7.6c1.8,0,4.8,0.7,4.8,3.9c0,2.3-1.8,4-4.5,4.3v0c2,0.3,3.3,1.4,3.3,3.3c0,3.6-3.1,5.3-7,5.4
			L0,51.1L3.6,34z M5.2,47.8h1.2c2.3,0,3.8-0.6,3.8-2.3c0-1.5-1.1-1.7-3.1-1.7H6L5.2,47.8z M6.7,40.8h1.7c1.9,0,3-0.8,3-1.9
			c0-1.4-1.1-1.6-2.8-1.6H7.4L6.7,40.8z"/>
            <polygon fill="#E31837" points="20,34 24.6,34 21,51.1 16.5,51.1 		"/>
            <path fill="#E31837" d="M38.2,37.9c-0.9-0.4-2.1-0.8-3.8-0.8c-1.8,0-3.3,0.3-3.3,1.6c0,2.4,6.6,1.5,6.6,6.7c0,4.7-4.4,5.9-8.3,5.9
			c-1.8,0-3.8-0.4-5.3-0.9l1.1-3.5c0.9,0.6,2.7,1,4.2,1c1.4,0,3.6-0.3,3.6-2c0-2.7-6.6-1.7-6.6-6.5c0-4.4,3.9-5.7,7.6-5.7
			c2.1,0,4.1,0.2,5.2,0.8L38.2,37.9z"/>
            <path fill="#E31837" d="M47.8,51.4c-5.5,0-7.6-3.4-7.6-6.9c0-6.5,3.4-10.7,10-10.7c5.5,0,7.6,3.4,7.6,7
			C57.8,47.1,54.4,51.4,47.8,51.4 M49.9,37.1c-3.5,0-5,4.1-5,7c0,2.1,0.8,3.9,3.2,3.9c3.5,0,5-4.1,5-6.9
			C53.1,38.9,52.3,37.1,49.9,37.1"/>
            <polygon fill="#E31837" points="61.8,34 67.5,34 71,45.8 71.1,45.8 73.4,34 77.7,34 74.1,51.1 68.5,51.1 64.9,39.3 64.9,39.3
			62.5,51.1 58.2,51.1 		"/>
        </g>
        <path fill="#FFFFFF" d="M17.7,25.9c0,0-0.1,0.4,1.6,1.9c2,1.8,4.1,2.3,6,2.3c1.8,0,4.4-1,6-2.7
		c1.6-1.7,1.6-2.4,1.6-2.4s-1.5,1.2-2.4,1.6c-1.4,0.7-3.4,1.7-5.2,1.7c-2.3,0-3.9-0.4-5.4-1.1C18.4,26.6,17.7,25.9,17.7,25.9" display="inline"/>
    </g>
</svg>
