<svg xmlns="http://www.w3.org/2000/svg" xmlns:xlink="http://www.w3.org/1999/xlink" width="100%" height="100%" version="1.1" viewBox="0 0 511 139">
    <defs>
        <polygon id="path-1" points="0 138.94 510.236 138.94 510.236 0.099 0 0.099"/>
    </defs>
    <g id="Page-1" fill="none" fill-rule="evenodd" stroke="none" stroke-width="1">
        <g id="Globus_180x50_100_sw">
            <g id="Group-3">
                <mask id="mask-2" fill="white">
                    <use xlink:href="#path-1"/>
                </mask>
                <g id="Clip-2"/>
                <polygon id="Fill-1" fill="#ddd" points="0 139 510.236 139 510.236 0.099 0 0.099" mask="url(#mask-2)"/>
            </g>
            <path id="Fill-4" fill="#FFFFFF" d="M58.632,67.805 C58.632,60.197 61.703,53.914 66.729,49.447 C72.452,44.492 79.432,42.327 87.249,42.327 C93.322,42.327 99.325,43.793 105.049,46.865 L105.049,56.986 C99.674,54.124 93.741,52.1 87.249,52.1 C82.922,52.1 78.455,53.426 75.035,56.427 C72.034,59.079 70.149,63.058 70.149,67.805 C70.149,72.691 71.964,76.599 74.896,79.252 C77.896,81.974 82.154,83.51 86.901,83.51 C89.902,83.51 93.044,82.743 94.579,81.974 L94.579,75.483 L86.203,75.483 L86.203,66.06 L105.049,66.06 L105.049,87.836 C99.605,91.327 92.974,93.282 86.203,93.282 C78.873,93.282 71.824,90.769 66.659,86.232 C61.773,81.904 58.632,75.621 58.632,67.805"/>
            <polyline id="Fill-5" fill="#FFFFFF" points="135.412 92.235 135.412 43.374 146.929 43.374 146.929 82.462 171.009 82.462 171.009 92.235 135.412 92.235"/>
            <path id="Fill-6" fill="#FFFFFF" d="M446.02,55.939 C441.552,53.426 437.295,52.1 432.27,52.1 C427.873,52.1 424.034,53.635 424.034,56.846 C424.034,59.15 426.407,60.266 429.129,61.383 C436.318,64.245 448.812,66.339 448.812,78.344 C448.812,87.767 440.367,93.282 430.874,93.282 C424.731,93.282 418.729,91.816 413.214,88.396 L413.214,78.275 C417.682,81.555 423.684,83.51 429.339,83.51 C433.805,83.51 437.295,81.765 437.295,78.554 C437.295,75.902 434.154,74.645 430.665,73.389 C422.08,70.247 412.516,68.433 412.516,56.986 C412.516,47.353 421.033,42.327 430.456,42.327 C435.83,42.327 440.646,43.445 446.02,45.818 L446.02,55.939"/>
            <path id="Fill-7" fill="#FFFFFF" d="M361.981,93.282 C353.884,93.282 346.626,90.001 342.647,84.278 C340.484,81.136 339.296,77.297 339.296,71.504 L339.296,43.374 L350.814,43.374 L350.814,72.342 C350.814,75.971 351.442,77.856 352.629,79.391 C354.652,82.044 358.073,83.51 361.981,83.51 C365.891,83.51 369.31,82.044 371.334,79.391 C372.522,77.856 373.149,75.971 373.149,72.342 L373.149,43.374 L384.665,43.374 L384.665,71.504 C384.665,77.297 383.48,81.136 381.316,84.278 C377.337,90.001 370.079,93.282 361.981,93.282"/>
            <path id="Fill-8" fill="#FFFFFF" d="M298.254,57.544 C298.254,56.077 297.696,54.682 296.79,53.776 C295.951,52.937 294.834,52.449 292.81,52.449 L283.457,52.449 L283.457,62.639 L292.81,62.639 C294.834,62.639 295.951,62.152 296.79,61.313 C297.696,60.407 298.254,59.01 298.254,57.544 Z M283.457,71.575 L283.457,83.161 L295.602,83.161 C297.836,83.161 299.163,82.533 300.138,81.555 C301.116,80.508 301.745,79.042 301.745,77.367 C301.745,75.692 301.116,74.226 300.138,73.179 C299.163,72.202 297.836,71.575 295.602,71.575 L283.457,71.575 Z M309.422,56.497 C309.422,59.987 308.306,63.337 305.304,65.781 L305.304,65.92 C309.702,67.944 312.913,72.76 312.913,77.995 C312.913,81.696 311.237,85.673 308.306,88.396 C305.514,90.978 301.955,92.235 296.161,92.235 L272.429,92.235 L272.429,43.374 L293.369,43.374 C299.441,43.374 303.628,44.98 306.212,48.121 C308.027,50.355 309.422,53.286 309.422,56.497 L309.422,56.497 Z"/>
            <path id="Fill-9" fill="#FFFFFF" d="M202.28,67.805 C202.28,76.53 208.352,83.51 217.287,83.51 C226.222,83.51 232.294,76.53 232.294,67.805 C232.294,59.079 226.222,52.1 217.287,52.1 C208.352,52.1 202.28,59.079 202.28,67.805 Z M190.763,67.805 C190.763,53.635 201.512,42.327 217.287,42.327 C233.061,42.327 243.811,53.635 243.811,67.805 C243.811,81.974 233.061,93.282 217.287,93.282 C201.512,93.282 190.763,81.974 190.763,67.805 L190.763,67.805 Z"/>
        </g>
    </g>
</svg>
